<svg width="24" height="24" viewBox="0 0 24 24" fill="none" xmlns="http://www.w3.org/2000/svg">
<path fill-rule="evenodd" clip-rule="evenodd" d="M15.7719 0.910156C16.4309 0.910156 17.0149 1.41935 17.2246 2.13822C17.4343 2.85708 18.6623 7.30507 18.6623 7.30507V16.1411H14.2144L14.3042 0.910156H15.7719Z" fill="url(#paint0_linear_853_3969)"/>
<path d="M22.3017 7.81414C22.3017 7.49963 22.0471 7.26001 21.7476 7.26001H19.1267C17.2846 7.26001 15.787 8.75765 15.787 10.5997V16.141H18.962C20.8041 16.141 22.3017 14.6434 22.3017 12.8013V7.81414Z" fill="url(#paint1_linear_853_3969)"/>
<path fill-rule="evenodd" clip-rule="evenodd" d="M15.772 0.910156C15.2628 0.910156 14.8584 1.31452 14.8584 1.82371L14.7686 18.6422C14.7686 21.0983 12.7767 23.0902 10.3206 23.0902H2.24833C1.85894 23.0902 1.60435 22.7157 1.72416 22.3563L8.19395 3.89045C8.82295 2.10827 10.5003 0.910156 12.3873 0.910156H15.787H15.772Z" fill="url(#paint2_linear_853_3969)"/>
<defs>
<linearGradient id="paint0_linear_853_3969" x1="17.629" y1="16.4706" x2="13.8849" y2="1.47926" gradientUnits="userSpaceOnUse">
<stop stop-color="#712575"/>
<stop offset="0.09" stop-color="#9A2884"/>
<stop offset="0.18" stop-color="#BF2C92"/>
<stop offset="0.27" stop-color="#DA2E9C"/>
<stop offset="0.34" stop-color="#EB30A2"/>
<stop offset="0.4" stop-color="#F131A5"/>
<stop offset="0.5" stop-color="#EC30A3"/>
<stop offset="0.61" stop-color="#DF2F9E"/>
<stop offset="0.72" stop-color="#C92D96"/>
<stop offset="0.83" stop-color="#AA2A8A"/>
<stop offset="0.95" stop-color="#83267C"/>
<stop offset="1" stop-color="#712575"/>
</linearGradient>
<linearGradient id="paint1_linear_853_3969" x1="19.0518" y1="1.22453" x2="19.0518" y2="22.3712" gradientUnits="userSpaceOnUse">
<stop stop-color="#DA7ED0"/>
<stop offset="0.08" stop-color="#B17BD5"/>
<stop offset="0.19" stop-color="#8778DB"/>
<stop offset="0.3" stop-color="#6276E1"/>
<stop offset="0.41" stop-color="#4574E5"/>
<stop offset="0.54" stop-color="#2E72E8"/>
<stop offset="0.67" stop-color="#1D71EB"/>
<stop offset="0.81" stop-color="#1471EC"/>
<stop offset="1" stop-color="#1171ED"/>
</linearGradient>
<linearGradient id="paint2_linear_853_3969" x1="17.7788" y1="1.7039" x2="3.76094" y2="24.1834" gradientUnits="userSpaceOnUse">
<stop stop-color="#DA7ED0"/>
<stop offset="0.05" stop-color="#B77BD4"/>
<stop offset="0.11" stop-color="#9079DA"/>
<stop offset="0.18" stop-color="#6E77DF"/>
<stop offset="0.25" stop-color="#5175E3"/>
<stop offset="0.33" stop-color="#3973E7"/>
<stop offset="0.42" stop-color="#2772E9"/>
<stop offset="0.54" stop-color="#1A71EB"/>
<stop offset="0.68" stop-color="#1371EC"/>
<stop offset="1" stop-color="#1171ED"/>
</linearGradient>
</defs>
</svg>
